<svg width="31" height="31" viewBox="0 0 31 31" fill="none" xmlns="http://www.w3.org/2000/svg">
<path fill-rule="evenodd" clip-rule="evenodd" d="M19.616 18.6925H20.6364L26.1131 24.195C26.6426 24.7246 26.6426 25.59 26.1131 26.1196C25.5835 26.6492 24.7181 26.6492 24.1885 26.1196L18.6989 20.63V19.6096L18.3501 19.248C16.5418 20.798 14.0747 21.5988 11.4526 21.1596C7.8618 20.5525 4.9943 17.5559 4.55514 13.9392C3.88347 8.47546 8.4818 3.87712 13.9456 4.54879C17.5622 4.98796 20.5589 7.85546 21.166 11.4463C21.6051 14.0684 20.8043 16.5355 19.2543 18.3438L19.616 18.6925ZM7.07389 12.88C7.07389 16.0963 9.67014 18.6925 12.8864 18.6925C16.1026 18.6925 18.6989 16.0963 18.6989 12.88C18.6989 9.66379 16.1026 7.06754 12.8864 7.06754C9.67014 7.06754 7.07389 9.66379 7.07389 12.88Z" fill="white"/>
</svg>
